<?xml version="1.0" encoding="utf-8"?>
<!-- Generator: Adobe Illustrator 21.0.0, SVG Export Plug-In . SVG Version: 6.00 Build 0)  -->
<svg version="1.1" id="Layer_1" xmlns="http://www.w3.org/2000/svg" xmlns:xlink="http://www.w3.org/1999/xlink" x="0px" y="0px"
	 viewBox="0 0 959 600" style="enable-background:new 0 0 959 600;" xml:space="preserve">
<style type="text/css">
	.st0{fill:url(#SVGID_1_);}
	.st1{fill:url(#SVGID_2_);}
	.st2{fill:#2C323A;}
	.st3{fill:#434B54;}
</style>
<g>
	<linearGradient id="SVGID_1_" gradientUnits="userSpaceOnUse" x1="568.3566" y1="146.5458" x2="391.8322" y2="323.0702">
		<stop  offset="0" style="stop-color:#00AF4C"/>
		<stop  offset="2.922676e-02" style="stop-color:#00B04C"/>
		<stop  offset="0.3091" style="stop-color:#2AB34B"/>
		<stop  offset="0.8345" style="stop-color:#68BD45"/>
		<stop  offset="1" style="stop-color:#77C043"/>
	</linearGradient>
	<path class="st0" d="M477.2,90c-0.9,0-1.8,0-2.7,0.1c-18.6,0.7-35.8,8.6-48.4,22.3l-72.3,78.1c-26.1,28.2-24.4,72.3,3.8,98.3
		l78.1,72.3c13.4,12.4,30.3,18.5,47.2,18.5c0,0,0,0,0,0c18.7,0,37.4-7.5,51.1-22.3l29.2-31.5L543.1,306c-1.2-1.2-3.1-1.2-4.4-0.2
		c-15.3,12.6-34.8,20.5-56.1,21c-0.8,0-1.7,0-2.5,0c-49.7,0-90.7-39.7-92.1-89.6c-0.7-24.6,8.3-48,25.2-65.9
		c16.9-17.9,39.8-28.1,64.4-28.7c0.9,0,1.7,0,2.6,0c49.7,0,90.7,39.7,92,89.6c0.6,20.8-5.9,40.3-17.2,56c-1.2,1.6-0.9,3.9,0.5,5.2
		l19.7,19.3l31.2-33.7c26.1-28.2,24.4-72.3-3.8-98.3l-78.1-72.3C511.5,96.5,494.8,90,477.2,90"/>
	<linearGradient id="SVGID_2_" gradientUnits="userSpaceOnUse" x1="532.8154" y1="182.0861" x2="427.3985" y2="287.5029">
		<stop  offset="0" style="stop-color:#00AF4C"/>
		<stop  offset="2.922676e-02" style="stop-color:#00B04C"/>
		<stop  offset="0.3091" style="stop-color:#2AB34B"/>
		<stop  offset="0.8345" style="stop-color:#68BD45"/>
		<stop  offset="1" style="stop-color:#77C043"/>
	</linearGradient>
	<path class="st1" d="M554.6,232.8c-0.5-19.9-8.8-38.4-23.3-52.1c-14-13.2-32.1-20.4-51.2-20.4c-0.7,0-1.4,0-2.1,0
		c-19.9,0.5-38.4,8.8-52.1,23.3c-13.7,14.5-20.9,33.4-20.4,53.3c1.1,40.4,34.3,72.5,74.5,72.5c0.7,0,1.4,0,2.1,0
		c19.9-0.5,38.4-8.8,52.1-23.3C547.9,271.6,555.2,252.7,554.6,232.8z M529.7,227.7c-0.5,1.3-1.8,2.2-3.2,2.2h-6.2
		c-1.8,0-3.3,1.5-3.3,3.3v35.4c0,3.7-3,6.8-6.8,6.8h-58.4c-3.7,0-6.8-3-6.8-6.8v-35.4c0-1.8-1.5-3.3-3.3-3.3h-6.2
		c-1.4,0-2.7-0.9-3.2-2.2c-0.5-1.3-0.1-2.9,1-3.8l43.4-37.2c2.5-2.2,6.3-2.2,8.8,0l43.4,37.2C529.8,224.8,530.2,226.4,529.7,227.7z"
		/>
	<g>
		<g>
			<path class="st2" d="M140.1,450.1c0-3-2.4-5.4-5.4-5.4c-7.1,0-13.3,2.7-17.1,7.3v-1.2c0-3.1-2.4-5.5-5.5-5.5s-5.5,2.4-5.5,5.5
				v53.7c0,3.1,2.4,5.5,5.5,5.5s5.5-2.4,5.5-5.5v-29.6c0-12.3,6.2-19.3,17.1-19.3C137.7,455.5,140.1,453.1,140.1,450.1z"/>
			<path class="st2" d="M191.6,471.6c0-3-0.5-10.6-4.9-17c-4.6-6.7-11.9-10.1-21.6-10.1c-18.1,0-28.6,12-28.6,33
				c0,21.7,10.3,33.2,29.9,33.2c13.1,0,20.3-6.5,21.6-7.8c0.9-0.9,1.8-2,1.8-4c0-2.8-2.3-5.2-5.2-5.2c-1.5,0-2.3,0.5-3.2,1.1
				c-3.7,2.7-7.8,5.4-15.1,5.4c-11.1,0-18.1-7.2-18.6-18.9H185C191.6,481.3,191.6,475.2,191.6,471.6z M165.1,454.8
				c10,0,15.2,5.6,15.6,16.5h-32.8C149,460.6,155.1,454.8,165.1,454.8z"/>
			<path class="st2" d="M223.6,444.5c-6.6,0-12.5,2.4-16.3,6.4v-0.1c0-3.1-2.4-5.5-5.5-5.5c-3.1,0-5.5,2.4-5.5,5.5v53.7
				c0,3.1,2.4,5.5,5.5,5.5c3.1,0,5.5-2.4,5.5-5.5v-32.7c0-11.6,5.3-17.2,16.3-17.2c12.1,0,14.6,6.5,14.6,16.3v33.6
				c0,3.1,2.4,5.5,5.5,5.5s5.5-2.4,5.5-5.5v-35.3C249.2,452.8,240.6,444.5,223.6,444.5z"/>
			<path class="st2" d="M276.2,499.5c-4,0-6.4-2.7-6.4-7.4v-35.2h7.3c3,0,5.3-2.3,5.3-5.3s-2.3-5.3-5.3-5.3h-7.3v-12.6
				c0-3.1-2.5-5.5-5.5-5.5c-3,0-5.5,2.6-5.5,5.5v12.6h-3.8c-3,0-5.3,2.3-5.3,5.3s2.3,5.3,5.3,5.3h3.8V492c0,10.9,6.8,18,17.4,18
				c3,0,5.4-2.3,5.4-5.3C281.6,501.8,279.2,499.5,276.2,499.5z"/>
			<path class="st2" d="M309.1,444.5c-13.9,0-20.4,6.9-23.1,11.1c-0.4,0.7-0.8,1.6-0.8,2.9c0,2.8,2.3,5.2,5.2,5.2
				c1.7,0,2.9-0.6,4.4-2.3l0,0c4-4.5,8-6.3,14.4-6.3c8.9,0,14.3,4.9,14.3,13.2v2.3h-17.3c-15.1,0-24.5,7.6-24.5,20
				c0,12.7,9,20.2,24.2,20.2c7.2,0,13.6-2.5,17.6-6.8v0.7c0,3,2.4,5.4,5.4,5.4c3,0,5.4-2.4,5.4-5.4v-36.4
				C334.2,453.6,324.6,444.5,309.1,444.5z M306.1,480.5h17.3v4.2c0,10.7-8.7,15.6-16.8,15.6c-6.3,0-13.8-1.7-13.8-9.9
				C292.9,481.8,301.1,480.5,306.1,480.5z"/>
			<path class="st2" d="M356.4,499.5c-2.1,0-4-0.8-4-6.2v-75.5c0-3.1-2.5-5.5-5.5-5.5c-3,0-5.5,2.6-5.5,5.5v75.5
				c0,10.8,5.4,16.8,15.1,16.8c2.9,0,5.3-2.4,5.3-5.3C361.7,501.8,359.3,499.5,356.4,499.5z"/>
		</g>
		<path class="st3" d="M380.1,456.6c2.6-6.1,9.3-10.6,18.4-10.6c2.2,0,4.1,1.9,4.1,4.1c0,2.2-1.9,4.1-4.1,4.1
			c-12.2,0-18.4,8.5-18.4,20.6v29.6c0,2.4-1.9,4.2-4.2,4.2c-2.4,0-4.2-1.9-4.2-4.2v-53.7c0-2.4,1.9-4.2,4.2-4.2
			c2.4,0,4.2,1.9,4.2,4.2V456.6z"/>
		<path class="st3" d="M428.8,445.8c21.2,0,25.3,16.8,25.3,25.8c0,3.8,0,8.5-5.3,8.5h-38.6c0,13.1,7.5,21.6,20,21.6
			c7.7,0,12.2-2.9,15.9-5.7c0.8-0.5,1.3-0.8,2.4-0.8c2.1,0,3.8,1.7,3.8,3.8c0,1.5-0.7,2.2-1.5,3c-2,2-8.9,7.4-20.6,7.4
			c-17.6,0-28.6-9.7-28.6-31.9C401.6,457.1,411.6,445.8,428.8,445.8z M428.8,453.4c-11.5,0-17.8,7.4-18.6,19.2h35.6
			C445.8,463.1,442.4,453.4,428.8,453.4z"/>
		<path class="st3" d="M468.5,461.9c0,13.9,34.8,8.7,34.8,29.9c0,12-9.9,17.5-22.5,17.5c-10.8,0-19.2-5.2-22.6-9.5
			c-0.7-0.9-0.9-1.6-0.9-2.5c0-2.1,1.7-3.8,3.8-3.8c0.8,0,1.9,0.3,2.9,1.3c4.1,4.1,9.4,6.5,16.8,6.5c7.5,0,14-2.5,14-9.4
			c0-13.6-34.8-8.2-34.8-29.9c0-11,9-16,20.2-16c9,0,16,3,20.1,8.5c0.4,0.5,0.9,1.3,0.9,2.5c0,2.1-1.7,3.8-3.8,3.8
			c-0.7,0-1.7-0.1-2.8-1.2c-3.6-3.4-7.5-5.6-14.4-5.6C474.3,454,468.5,455.8,468.5,461.9z"/>
		<path class="st3" d="M535,445.8c21.2,0,25.3,16.8,25.3,25.8c0,3.8,0,8.5-5.3,8.5h-38.6c0,13.1,7.5,21.6,20,21.6
			c7.7,0,12.2-2.9,15.9-5.7c0.8-0.5,1.3-0.8,2.4-0.8c2.1,0,3.8,1.7,3.8,3.8c0,1.5-0.7,2.2-1.5,3c-2,2-8.9,7.4-20.6,7.4
			c-17.6,0-28.6-9.7-28.6-31.9C507.7,457.1,517.8,445.8,535,445.8z M535,453.4c-11.5,0-17.8,7.4-18.6,19.2h35.6
			C551.9,463.1,548.6,453.4,535,453.4z"/>
		<path class="st3" d="M573.9,460.4c-1.3,1.5-2.2,1.9-3.4,1.9c-2.1,0-3.8-1.7-3.8-3.8c0-0.9,0.3-1.6,0.7-2.2
			c3.7-5.8,10.8-10.4,21.9-10.4c15.3,0,23.8,9,23.8,22.5v36.4c0,2.2-1.9,4.1-4.1,4.1c-2.2,0-4.1-1.9-4.1-4.1v-4.8
			c-3.3,6.2-11,9.5-18.9,9.5c-14,0-22.9-6.7-22.9-18.9c0-11.6,8.9-18.6,23.1-18.6h18.6v-3.6c0-9-6-14.5-15.6-14.5
			C582.3,453.7,578,455.8,573.9,460.4z M604.9,484.8v-5.6h-18.6c-8.6,0-14.5,3.6-14.5,11.2c0,6.9,4.8,11.2,15.1,11.2
			C596,501.7,604.9,496,604.9,484.8z"/>
		<path class="st3" d="M631.4,456.6c2.6-6.1,9.3-10.6,18.4-10.6c2.2,0,4.1,1.9,4.1,4.1c0,2.2-1.9,4.1-4.1,4.1
			c-12.2,0-18.4,8.5-18.4,20.6v29.6c0,2.4-1.9,4.2-4.2,4.2c-2.4,0-4.2-1.9-4.2-4.2v-53.7c0-2.4,1.9-4.2,4.2-4.2
			c2.4,0,4.2,1.9,4.2,4.2V456.6z"/>
		<path class="st3" d="M680.3,445.8c11.8,0,18.2,6.2,20.4,9.1c0.7,0.9,0.9,1.6,0.9,2.5c0,2.2-1.7,3.8-3.8,3.8
			c-1.3,0-2.2-0.5-3.2-1.6c-2-2.2-5.6-6.2-14.3-6.2c-12.2,0-18.6,7.8-18.6,24.1c0,16.5,6.5,24.2,18.6,24.2c7.7,0,12.3-3.4,15.3-5.7
			c0.9-0.7,1.6-0.9,2.5-0.9c2.1,0,3.8,1.7,3.8,3.8c0,1.2-0.4,2.1-1.7,3.3c-2.9,2.4-9.3,7.1-20,7.1c-17.1,0-27.2-10.2-27.2-31.9
			S663.3,445.8,680.3,445.8z"/>
		<path class="st3" d="M758.6,469.2v35.3c0,2.4-1.9,4.2-4.2,4.2c-2.4,0-4.2-1.9-4.2-4.2v-33.6c0-10.4-3-17.6-15.9-17.6
			c-13.1,0-17.6,7.9-17.6,18.5v32.7c0,2.4-1.9,4.2-4.2,4.2c-2.4,0-4.2-1.9-4.2-4.2v-86.7c0-2.4,1.9-4.2,4.2-4.2
			c2.4,0,4.2,1.9,4.2,4.2V455c2.5-5,9-9.3,17.6-9.3C754.6,445.8,758.6,457.9,758.6,469.2z"/>
		<path class="st3" d="M792.5,445.8c21.2,0,25.3,16.8,25.3,25.8c0,3.8,0,8.5-5.3,8.5h-38.6c0,13.1,7.5,21.6,20,21.6
			c7.7,0,12.2-2.9,15.9-5.7c0.8-0.5,1.3-0.8,2.4-0.8c2.1,0,3.8,1.7,3.8,3.8c0,1.5-0.7,2.2-1.5,3c-2,2-8.9,7.4-20.6,7.4
			c-17.6,0-28.6-9.7-28.6-31.9C765.2,457.1,775.3,445.8,792.5,445.8z M792.5,453.4c-11.5,0-17.8,7.4-18.6,19.2h35.6
			C809.4,463.1,806.1,453.4,792.5,453.4z"/>
		<path class="st3" d="M833.4,456.6c2.6-6.1,9.3-10.6,18.4-10.6c2.2,0,4.1,1.9,4.1,4.1c0,2.2-1.9,4.1-4.1,4.1
			c-12.2,0-18.4,8.5-18.4,20.6v29.6c0,2.4-1.9,4.2-4.2,4.2c-2.4,0-4.2-1.9-4.2-4.2v-53.7c0-2.4,1.9-4.2,4.2-4.2
			c2.4,0,4.2,1.9,4.2,4.2V456.6z"/>
	</g>
</g>
</svg>
