<?xml version="1.0" encoding="utf-8"?>
<!-- Generator: Adobe Illustrator 21.0.0, SVG Export Plug-In . SVG Version: 6.00 Build 0)  -->
<svg version="1.1" id="Layer_1" xmlns="http://www.w3.org/2000/svg" xmlns:xlink="http://www.w3.org/1999/xlink" x="0px" y="0px"
	 viewBox="0 0 1200 353" style="enable-background:new 0 0 1200 353;" xml:space="preserve">
<style type="text/css">
	.st0{fill:url(#SVGID_1_);}
	.st1{fill:#FFFFFF;}
	.st2{fill:url(#SVGID_2_);}
</style>
<g>
	<linearGradient id="SVGID_1_" gradientUnits="userSpaceOnUse" x1="238.3139" y1="112.8981" x2="115.7191" y2="235.493">
		<stop  offset="0" style="stop-color:#00AF4C"/>
		<stop  offset="2.922676e-02" style="stop-color:#00B04C"/>
		<stop  offset="0.3091" style="stop-color:#2AB34B"/>
		<stop  offset="0.8345" style="stop-color:#68BD45"/>
		<stop  offset="1" style="stop-color:#77C043"/>
	</linearGradient>
	<path class="st0" d="M175,73.6c-0.6,0-1.2,0-1.9,0c-12.9,0.5-24.8,6-33.6,15.5l-50.2,54.2c-18.1,19.6-16.9,50.2,2.6,68.3l54.2,50.2
		c9.3,8.6,21.1,12.8,32.8,12.8c0,0,0,0,0,0c13,0,26-5.2,35.5-15.5l20.3-21.9l-14-13.7c-0.8-0.8-2.2-0.9-3.1-0.1
		c-10.6,8.8-24.1,14.2-38.9,14.6c-0.6,0-1.2,0-1.8,0c-34.5,0-63-27.6-63.9-62.3c-0.5-17.1,5.8-33.3,17.5-45.7
		c11.8-12.4,27.6-19.5,44.7-20c0.6,0,1.2,0,1.8,0c34.5,0,63,27.6,63.9,62.3c0.4,14.5-4.1,28-11.9,38.9c-0.8,1.1-0.6,2.7,0.4,3.6
		l13.7,13.4l21.6-23.4c18.1-19.6,16.9-50.2-2.6-68.3l-54.2-50.2C198.8,78.2,187.2,73.6,175,73.6"/>
	<g>
		<g>
			<path class="st1" d="M357.5,150.3c0-3.2-2.6-5.8-5.8-5.8c-7.6,0-14.2,2.9-18.2,7.8V151c0-3.3-2.6-5.9-5.9-5.9
				c-3.3,0-5.9,2.6-5.9,5.9v57.2c0,3.3,2.6,5.9,5.9,5.9c3.3,0,5.9-2.6,5.9-5.9v-31.6c0-13.1,6.6-20.6,18.2-20.6
				C354.9,156.1,357.5,153.5,357.5,150.3z"/>
			<path class="st1" d="M412.5,173.2c0-3.2-0.5-11.3-5.3-18.1c-4.9-7.1-12.7-10.8-23.1-10.8c-19.4,0-30.4,12.8-30.4,35.2
				c0,23.1,11,35.4,31.9,35.4c14,0,21.6-6.9,23-8.3c0.9-0.9,2-2.1,2-4.2c0-3-2.5-5.5-5.5-5.5c-1.6,0-2.4,0.5-3.4,1.1
				c-3.9,2.9-8.4,5.8-16.1,5.8c-11.8,0-19.3-7.7-19.9-20.2h39.7C412.5,183.6,412.5,177.1,412.5,173.2z M384.1,155.3
				c10.6,0,16.2,5.9,16.6,17.6h-35C367,161.5,373.5,155.3,384.1,155.3z"/>
			<path class="st1" d="M446.5,144.3c-7,0-13.4,2.6-17.3,6.8V151c0-3.3-2.6-5.9-5.9-5.9c-3.3,0-5.9,2.6-5.9,5.9v57.2
				c0,3.3,2.6,5.9,5.9,5.9c3.3,0,5.9-2.6,5.9-5.9v-34.8c0-12.3,5.7-18.3,17.3-18.3c12.9,0,15.5,6.9,15.5,17.3v35.8
				c0,3.3,2.6,5.9,5.9,5.9c3.3,0,5.9-2.6,5.9-5.9v-37.6C473.8,153.1,464.6,144.3,446.5,144.3z"/>
			<path class="st1" d="M502.6,202.9c-4.3,0-6.8-2.9-6.8-7.9v-37.5h7.8c3.2,0,5.6-2.5,5.6-5.6c0-3.2-2.5-5.6-5.6-5.6h-7.8v-13.4
				c0-3.3-2.7-5.9-5.9-5.9c-3.2,0-5.9,2.8-5.9,5.9v13.4h-4.1c-3.2,0-5.6,2.5-5.6,5.6c0,3.2,2.5,5.6,5.6,5.6h4.1V195
				c0,11.6,7.3,19.2,18.6,19.2c3.2,0,5.8-2.5,5.8-5.6C508.4,205.4,505.9,202.9,502.6,202.9z"/>
			<path class="st1" d="M537.7,144.3c-14.9,0-21.8,7.4-24.6,11.8c-0.4,0.7-0.9,1.7-0.9,3.1c0,3,2.5,5.5,5.5,5.5
				c1.8,0,3.1-0.7,4.7-2.4l0,0c4.3-4.8,8.6-6.7,15.3-6.7c9.5,0,15.2,5.3,15.2,14.1v2.4h-18.5c-16.1,0-26.1,8.2-26.1,21.3
				c0,13.5,9.6,21.6,25.8,21.6c7.7,0,14.5-2.7,18.8-7.2v0.7c0,3.2,2.6,5.8,5.8,5.8c3.2,0,5.8-2.6,5.8-5.8v-38.8
				C564.5,154,554.2,144.3,537.7,144.3z M534.5,182.8H553v4.5c0,11.4-9.3,16.6-17.9,16.6c-6.7,0-14.7-1.8-14.7-10.6
				C520.4,184.1,529.2,182.8,534.5,182.8z"/>
			<path class="st1" d="M588.1,202.9c-2.2,0-4.2-0.8-4.2-6.6v-80.5c0-3.3-2.7-5.9-5.9-5.9c-3.2,0-5.9,2.8-5.9,5.9v80.5
				c0,11.5,5.7,17.9,16.1,17.9c3.1,0,5.6-2.5,5.6-5.6C593.8,205.5,591.3,202.9,588.1,202.9z"/>
		</g>
		<path class="st1" d="M613.4,157.2c2.8-6.5,9.9-11.3,19.6-11.3c2.4,0,4.4,2,4.4,4.4c0,2.4-2,4.4-4.4,4.4c-13,0-19.6,9-19.6,22v31.6
			c0,2.5-2,4.5-4.5,4.5c-2.5,0-4.5-2-4.5-4.5V151c0-2.5,2-4.5,4.5-4.5c2.5,0,4.5,2,4.5,4.5V157.2z"/>
		<path class="st1" d="M665.4,145.7c22.6,0,26.9,17.9,26.9,27.5c0,4.1,0,9-5.6,9h-41.2c0,14,8,23,21.3,23c8.2,0,13-3.1,16.9-6.1
			c0.8-0.6,1.4-0.8,2.5-0.8c2.3,0,4.1,1.8,4.1,4.1c0,1.6-0.7,2.4-1.6,3.2c-2.1,2.1-9.4,7.9-22,7.9c-18.8,0-30.5-10.3-30.5-34
			C636.3,157.8,647,145.7,665.4,145.7z M665.4,153.9c-12.3,0-19,7.9-19.9,20.4h37.9C683.4,164.1,679.9,153.9,665.4,153.9z"/>
		<path class="st1" d="M707.7,162.9c0,14.8,37.1,9.3,37.1,31.9c0,12.8-10.6,18.6-24,18.6c-11.6,0-20.4-5.5-24.1-10.2
			c-0.7-1-1-1.7-1-2.7c0-2.3,1.8-4.1,4.1-4.1c0.8,0,2,0.3,3.1,1.4c4.4,4.4,10,6.9,17.9,6.9c8,0,14.9-2.7,14.9-10
			c0-14.5-37.1-8.7-37.1-31.9c0-11.7,9.6-17.1,21.6-17.1c9.6,0,17.1,3.2,21.4,9c0.4,0.6,1,1.4,1,2.7c0,2.3-1.8,4.1-4.1,4.1
			c-0.7,0-1.8-0.1-3-1.3c-3.8-3.7-8-5.9-15.4-5.9C713.9,154.4,707.7,156.4,707.7,162.9z"/>
		<path class="st1" d="M778.6,145.7c22.6,0,26.9,17.9,26.9,27.5c0,4.1,0,9-5.6,9h-41.2c0,14,8,23,21.3,23c8.2,0,13-3.1,16.9-6.1
			c0.8-0.6,1.4-0.8,2.5-0.8c2.3,0,4.1,1.8,4.1,4.1c0,1.6-0.7,2.4-1.6,3.2c-2.1,2.1-9.4,7.9-22,7.9c-18.8,0-30.5-10.3-30.5-34
			C749.5,157.8,760.2,145.7,778.6,145.7z M778.6,153.9c-12.3,0-19,7.9-19.9,20.4h37.9C796.6,164.1,793.1,153.9,778.6,153.9z"/>
		<path class="st1" d="M820.1,161.3c-1.4,1.6-2.4,2-3.7,2c-2.3,0-4.1-1.8-4.1-4.1c0-1,0.3-1.7,0.7-2.4c3.9-6.2,11.6-11.1,23.4-11.1
			c16.4,0,25.4,9.6,25.4,24v38.8c0,2.4-2,4.4-4.4,4.4c-2.4,0-4.4-2-4.4-4.4v-5.1c-3.5,6.6-11.7,10.2-20.2,10.2
			c-14.9,0-24.4-7.2-24.4-20.2c0-12.4,9.4-19.9,24.7-19.9h19.9v-3.8c0-9.6-6.3-15.5-16.6-15.5C829,154.1,824.5,156.4,820.1,161.3z
			 M853.1,187.3v-5.9h-19.9c-9.2,0-15.5,3.8-15.5,12c0,7.3,5.1,12,16.1,12C843.7,205.3,853.1,199.3,853.1,187.3z"/>
		<path class="st1" d="M881.4,157.2c2.8-6.5,9.9-11.3,19.6-11.3c2.4,0,4.4,2,4.4,4.4c0,2.4-2,4.4-4.4,4.4c-13,0-19.6,9-19.6,22v31.6
			c0,2.5-2,4.5-4.5,4.5c-2.5,0-4.5-2-4.5-4.5V151c0-2.5,2-4.5,4.5-4.5c2.5,0,4.5,2,4.5,4.5V157.2z"/>
		<path class="st1" d="M933.6,145.7c12.5,0,19.5,6.6,21.7,9.7c0.7,1,1,1.7,1,2.7c0,2.4-1.8,4.1-4.1,4.1c-1.4,0-2.4-0.6-3.4-1.7
			c-2.1-2.4-5.9-6.6-15.2-6.6c-13,0-19.9,8.3-19.9,25.7c0,17.6,6.9,25.8,19.9,25.8c8.2,0,13.1-3.7,16.4-6.1c1-0.7,1.7-1,2.7-1
			c2.3,0,4.1,1.8,4.1,4.1c0,1.3-0.4,2.3-1.8,3.5c-3.1,2.5-9.9,7.6-21.3,7.6c-18.2,0-29-10.9-29-34S915.4,145.7,933.6,145.7z"/>
		<path class="st1" d="M1017,170.6v37.6c0,2.5-2,4.5-4.5,4.5c-2.5,0-4.5-2-4.5-4.5v-35.8c0-11.1-3.2-18.8-16.9-18.8
			c-14,0-18.8,8.5-18.8,19.7v34.8c0,2.5-2,4.5-4.5,4.5c-2.5,0-4.5-2-4.5-4.5v-92.5c0-2.5,2-4.5,4.5-4.5c2.5,0,4.5,2,4.5,4.5v39.8
			c2.7-5.4,9.6-9.9,18.8-9.9C1012.8,145.7,1017,158.6,1017,170.6z"/>
		<path class="st1" d="M1053.2,145.7c22.6,0,26.9,17.9,26.9,27.5c0,4.1,0,9-5.6,9h-41.2c0,14,8,23,21.3,23c8.2,0,13-3.1,16.9-6.1
			c0.8-0.6,1.4-0.8,2.5-0.8c2.3,0,4.1,1.8,4.1,4.1c0,1.6-0.7,2.4-1.6,3.2c-2.1,2.1-9.4,7.9-22,7.9c-18.8,0-30.5-10.3-30.5-34
			C1024.1,157.8,1034.8,145.7,1053.2,145.7z M1053.2,153.9c-12.3,0-19,7.9-19.9,20.4h37.9C1071.2,164.1,1067.7,153.9,1053.2,153.9z"
			/>
		<path class="st1" d="M1096.8,157.2c2.8-6.5,9.9-11.3,19.6-11.3c2.4,0,4.4,2,4.4,4.4c0,2.4-2,4.4-4.4,4.4c-13,0-19.6,9-19.6,22
			v31.6c0,2.5-2,4.5-4.5,4.5c-2.5,0-4.5-2-4.5-4.5V151c0-2.5,2-4.5,4.5-4.5c2.5,0,4.5,2,4.5,4.5V157.2z"/>
	</g>
	<linearGradient id="SVGID_2_" gradientUnits="userSpaceOnUse" x1="213.6308" y1="137.5806" x2="140.4197" y2="210.7917">
		<stop  offset="0" style="stop-color:#00AF4C"/>
		<stop  offset="2.922676e-02" style="stop-color:#00B04C"/>
		<stop  offset="0.3091" style="stop-color:#2AB34B"/>
		<stop  offset="0.8345" style="stop-color:#68BD45"/>
		<stop  offset="1" style="stop-color:#77C043"/>
	</linearGradient>
	<path class="st2" d="M228.8,172.8c-0.4-13.8-6.1-26.7-16.2-36.2c-9.7-9.2-22.3-14.2-35.6-14.2c-0.5,0-1,0-1.4,0
		c-13.8,0.4-26.7,6.1-36.2,16.2c-9.5,10-14.5,23.2-14.2,37C126,203.7,149.1,226,177,226c0.5,0,0.9,0,1.4,0
		c13.8-0.4,26.7-6.1,36.2-16.2C224.1,199.8,229.2,186.6,228.8,172.8z M211.4,169.3c-0.3,0.9-1.2,1.6-2.2,1.6h-4.3
		c-1.3,0-2.3,1-2.3,2.3v24.6c0,2.6-2.1,4.7-4.7,4.7h-40.6c-2.6,0-4.7-2.1-4.7-4.7v-24.6c0-1.3-1-2.3-2.3-2.3h-4.3
		c-1,0-1.9-0.6-2.2-1.6c-0.3-0.9-0.1-2,0.7-2.6l30.1-25.8c1.8-1.5,4.4-1.5,6.1,0l30.1,25.8C211.5,167.3,211.8,168.3,211.4,169.3z"/>
</g>
</svg>
