<?xml version="1.0" encoding="utf-8"?>
<!-- Generator: Adobe Illustrator 21.0.0, SVG Export Plug-In . SVG Version: 6.00 Build 0)  -->
<svg version="1.1" id="Layer_1" xmlns="http://www.w3.org/2000/svg" xmlns:xlink="http://www.w3.org/1999/xlink" x="0px" y="0px"
	 viewBox="0 0 1200 1200" style="enable-background:new 0 0 1200 1200;" xml:space="preserve">
<g>
	<path d="M589.6,90.8c-3.2,0-6.3,0.1-9.5,0.2c-65.3,2.5-125.8,30.3-170.2,78.3L155.4,444.1c-91.7,99-85.7,254.2,13.3,345.9
		l274.8,254.4c47,43.5,106.7,65.1,166.2,65.1c0,0,0,0,0,0c65.9,0,131.6-26.4,179.7-78.4l102.8-111l-70.8-69.5
		c-4.3-4.2-11-4.4-15.6-0.5c-53.8,44.5-122.3,72-197.3,74.1c-3,0.1-6,0.1-8.9,0.1c-174.7,0-319.1-139.7-323.9-315.3
		c-2.4-86.5,29.1-168.8,88.7-231.7c59.5-62.9,140-98.8,226.5-101.1c3-0.1,6.1-0.1,9.1-0.1c174.7,0,318.9,139.7,323.7,315.3
		c2,73.3-20.7,141.6-60.4,197.1c-4.1,5.7-3.2,13.6,1.8,18.5l69.2,67.8l109.6-118.4c91.7-99,85.7-254.2-13.3-345.9L755.8,156
		C710.2,113.7,651.3,90.8,589.6,90.8"/>
	<path d="M861.9,593.1c-1.9-70-31-135.1-81.8-183.3c-49.1-46.5-112.8-71.9-180.2-71.9c-2.4,0-4.9,0-7.3,0.1
		c-70,1.9-135.1,31-183.3,81.8c-48.2,50.9-73.7,117.4-71.8,187.5c3.9,142.2,120.7,255.2,262.1,255.2c2.4,0,4.8,0,7.2-0.1
		c70-1.9,135.1-31,183.3-81.8C838.3,729.7,863.8,663.1,861.9,593.1z M774.1,575.2c-1.8,4.7-6.3,7.9-11.3,7.9h-21.9
		c-6.5,0-11.8,5.3-11.8,11.8v124.7c0,13.2-10.7,23.9-23.9,23.9H499.6c-13.2,0-23.9-10.7-23.9-23.9V594.9c0-6.5-5.3-11.8-11.8-11.8
		h-21.9c-5.1,0-9.6-3.2-11.3-7.9c-1.8-4.7-0.4-10.1,3.5-13.4L586.9,431c8.9-7.7,22.1-7.7,31.1,0l152.7,130.9
		C774.4,565.2,775.8,570.5,774.1,575.2z"/>
</g>
</svg>
