<?xml version="1.0" encoding="utf-8"?>
<!-- Generator: Adobe Illustrator 21.0.0, SVG Export Plug-In . SVG Version: 6.00 Build 0)  -->
<svg version="1.1" id="Layer_1" xmlns="http://www.w3.org/2000/svg" xmlns:xlink="http://www.w3.org/1999/xlink" x="0px" y="0px"
	 viewBox="0 0 100 100" style="enable-background:new 0 0 100 100;" xml:space="preserve">
<style type="text/css">
	.st0{opacity:0.3;fill:url(#shadow_1_);}
	.st1{fill:#434B54;}
	.st2{fill:url(#SVGID_1_);}
	.st3{fill:#FFFFFF;}
</style>
<g>
	
		<radialGradient id="shadow_1_" cx="-1093.9666" cy="-494.433" r="40.4874" gradientTransform="matrix(-0.4287 0 0 7.590000e-02 -419.619 122.648)" gradientUnits="userSpaceOnUse">
		<stop  offset="0.1152" style="stop-color:#010101"/>
		<stop  offset="0.1408" style="stop-color:#222121"/>
		<stop  offset="0.18" style="stop-color:#434140"/>
		<stop  offset="0.2241" style="stop-color:#636160"/>
		<stop  offset="0.2722" style="stop-color:#858281"/>
		<stop  offset="0.3253" style="stop-color:#A5A2A1"/>
		<stop  offset="0.3852" style="stop-color:#C1BEBE"/>
		<stop  offset="0.4552" style="stop-color:#D9D7D7"/>
		<stop  offset="0.5417" style="stop-color:#EBEAE9"/>
		<stop  offset="0.6631" style="stop-color:#F9F9F9"/>
		<stop  offset="1" style="stop-color:#FFFFFF"/>
	</radialGradient>
	<ellipse id="shadow" class="st0" cx="49.4" cy="85.1" rx="17.4" ry="3.1"/>
	<g>
		<g id="pointer">
			<path class="st1" d="M70.3,21.8c-11.5-11.5-30.3-11.5-41.8,0c-11.5,11.5-11.5,30.3,0,41.8l18.9,18.9c1.1,1.1,3,1.1,4.1,0
				l18.9-18.9C81.8,52.1,81.8,33.4,70.3,21.8z"/>
			<linearGradient id="SVGID_1_" gradientUnits="userSpaceOnUse" x1="27.1544" y1="42.647" x2="71.5737" y2="42.647">
				<stop  offset="0" style="stop-color:#00AF4C"/>
				<stop  offset="2.922676e-02" style="stop-color:#00B04C"/>
				<stop  offset="0.3091" style="stop-color:#2AB34B"/>
				<stop  offset="0.8345" style="stop-color:#68BD45"/>
				<stop  offset="1" style="stop-color:#77C043"/>
			</linearGradient>
			<circle class="st2" cx="49.4" cy="42.6" r="22.2"/>
			<path class="st3" d="M62.4,40.9c-0.1,0.4-0.5,0.6-0.9,0.6h-1.7c-0.5,0-0.9,0.4-0.9,0.9v9.5c0,1-0.8,1.8-1.8,1.8H41.6
				c-1,0-1.8-0.8-1.8-1.8v-9.5c0-0.5-0.4-0.9-0.9-0.9h-1.7c-0.4,0-0.7-0.2-0.9-0.6c-0.1-0.4,0-0.8,0.3-1l11.6-9.9
				c0.7-0.6,1.7-0.6,2.4,0l11.6,9.9C62.4,40.1,62.5,40.5,62.4,40.9z"/>
		</g>
	</g>
</g>
</svg>
